<svg width="25" height="25" viewBox="0 0 25 25" fill="none" xmlns="http://www.w3.org/2000/svg">
<g clip-path="url(#clip0_1_72)">
<path d="M24.6146 4.86111C24.1333 4.03403 23.2479 3.47223 22.2222 3.47223H12.5V4.86111H24.6146ZM0 17.3611H25V18.75H0V17.3611ZM12.5 11.8056H25V13.1944H12.5V11.8056ZM12.5 9.02778H25V10.4167H12.5V9.02778ZM0 14.5833H25V15.9722H0V14.5833ZM2.77778 21.5278H22.2222C23.2479 21.5278 24.1333 20.966 24.6146 20.1389H0.385417C0.866667 20.966 1.75208 21.5278 2.77778 21.5278ZM12.5 6.25H25V7.63889H12.5V6.25Z" fill="#B22334"/>
<path d="M0.0472222 22.2215C0.0587963 22.2863 0.0724537 22.3505 0.0881944 22.4139C0.106713 22.4833 0.128009 22.5518 0.152083 22.6194C0.213889 22.7993 0.288889 22.9729 0.383333 23.1354L0.385417 23.1389H24.6146L24.616 23.1361C24.7101 22.9728 24.7873 22.8004 24.8465 22.6215C24.8916 22.491 24.9269 22.3573 24.9521 22.2215C24.9806 22.0687 25 21.9118 25 21.75H0C0 21.9118 0.0194444 22.0681 0.0472222 22.2215ZM0 18.9722H25V20.3611H0V18.9722ZM0 16.1944V17.5833H25V16.1944H12.5H0ZM12.5 13.4167H25V14.8056H12.5V13.4167ZM12.5 10.6389H25V12.0278H12.5V10.6389ZM0.0888889 8.58611C0.10625 8.51527 0.130556 8.44791 0.152778 8.37986C0.128817 8.44775 0.107504 8.51655 0.0888889 8.58611ZM12.5 9.25H25C25 9.08819 24.9806 8.93125 24.9521 8.77777C24.9278 8.64173 24.8922 8.50794 24.8458 8.37777C24.7865 8.19813 24.7091 8.02501 24.6146 7.86111H12.5V9.25Z" fill="#EEEEEE"/>
<path d="M12.5 3.47223H2.77778C2.04107 3.47223 1.33453 3.76488 0.813592 4.28582C0.292658 4.80675 0 5.51329 0 6.25L0 13.1944H12.5V3.47223Z" fill="#3C3B6E"/>
<path d="M1.38959 5.36527L1.81875 5.67708L1.65487 6.18055L2.08334 5.86944L2.5125 6.18055L2.34862 5.67708L2.77778 5.36527H2.24723L2.08334 4.86111L1.92014 5.36527H1.38959ZM2.77848 6.75416L3.20764 7.06597L3.04375 7.56944L3.47223 7.25833L3.90139 7.56944L3.7375 7.06597L4.16667 6.75416H3.63612L3.47223 6.25L3.30903 6.75416H2.77848ZM5.55625 6.75416L5.98542 7.06597L5.82153 7.56944L6.25 7.25833L6.67917 7.56944L6.51528 7.06597L6.94445 6.75416H6.41389L6.25 6.25L6.08681 6.75416H5.55625ZM8.33403 6.75416L8.7632 7.06597L8.59931 7.56944L9.02778 7.25833L9.45695 7.56944L9.29306 7.06597L9.72223 6.75416H9.19167L9.02778 6.25L8.86459 6.75416H8.33403ZM2.77848 9.53194L3.20764 9.84375L3.04375 10.3472L3.47223 10.0361L3.90139 10.3472L3.7375 9.84375L4.16667 9.53194H3.63612L3.47223 9.02777L3.30903 9.53194H2.77848ZM5.55625 9.53194L5.98542 9.84375L5.82153 10.3472L6.25 10.0361L6.67917 10.3472L6.51528 9.84375L6.94445 9.53194H6.41389L6.25 9.02777L6.08681 9.53194H5.55625ZM8.33403 9.53194L8.7632 9.84375L8.59931 10.3472L9.02778 10.0361L9.45695 10.3472L9.29306 9.84375L9.72223 9.53194H9.19167L9.02778 9.02777L8.86459 9.53194H8.33403ZM4.16737 5.36527L4.59653 5.67708L4.43264 6.18055L4.86112 5.86944L5.29028 6.18055L5.12639 5.67708L5.55556 5.36527H5.025L4.86112 4.86111L4.69792 5.36527H4.16737ZM6.94514 5.36527L7.37431 5.67708L7.21042 6.18055L7.63889 5.86944L8.06806 6.18055L7.90417 5.67708L8.33334 5.36527H7.80278L7.63889 4.86111L7.4757 5.36527H6.94514ZM9.72292 5.36527L10.1521 5.67708L9.9882 6.18055L10.4167 5.86944L10.8458 6.18055L10.6819 5.67708L11.1111 5.36527H10.5806L10.4167 4.86111L10.2535 5.36527H9.72292ZM1.38959 8.14305L1.81875 8.45486L1.65487 8.95833L2.08334 8.64722L2.5125 8.95833L2.34862 8.45486L2.77778 8.14305H2.24723L2.08334 7.63888L1.92014 8.14305H1.38959ZM4.43264 8.95833L4.86112 8.64722L5.29028 8.95833L5.12639 8.45486L5.55556 8.14305H5.025L4.86112 7.63888L4.69792 8.14305H4.16737L4.59653 8.45486L4.43264 8.95833ZM6.94514 8.14305L7.37431 8.45486L7.21042 8.95833L7.63889 8.64722L8.06806 8.95833L7.90417 8.45486L8.33334 8.14305H7.80278L7.63889 7.63888L7.4757 8.14305H6.94514ZM9.72292 8.14305L10.1521 8.45486L9.9882 8.95833L10.4167 8.64722L10.8458 8.95833L10.6819 8.45486L11.1111 8.14305H10.5806L10.4167 7.63888L10.2535 8.14305H9.72292ZM1.38959 10.9208L1.81875 11.2326L1.65487 11.7361L2.08334 11.425L2.5125 11.7361L2.34862 11.2326L2.77778 10.9208H2.24723L2.08334 10.4167L1.92014 10.9208H1.38959ZM4.43264 11.7361L4.86112 11.425L5.29028 11.7361L5.12639 11.2326L5.55556 10.9208H5.025L4.86112 10.4167L4.69792 10.9208H4.16737L4.59653 11.2326L4.43264 11.7361ZM6.94514 10.9208L7.37431 11.2326L7.21042 11.7361L7.63889 11.425L8.06806 11.7361L7.90417 11.2326L8.33334 10.9208H7.80278L7.63889 10.4167L7.4757 10.9208H6.94514ZM9.72292 10.9208L10.1521 11.2326L9.9882 11.7361L10.4167 11.425L10.8458 11.7361L10.6819 11.2326L11.1111 10.9208H10.5806L10.4167 10.4167L10.2535 10.9208H9.72292Z" fill="white"/>
</g>
<defs>
<clipPath id="clip0_1_72">
<rect width="25" height="25" fill="white"/>
</clipPath>
</defs>
</svg>
